<svg width="168" height="214" viewBox="0 0 168 214" fill="none" xmlns="http://www.w3.org/2000/svg">
<path fill-rule="evenodd" clip-rule="evenodd" d="M15.4244 75.7504C19.1629 41.5469 48.2926 14.9302 83.6671 14.9302V0C37.4569 0 0.00187132 37.26 0.00187132 83.2155V90.6806H79.7256V75.7504H15.4244Z" fill="#5E6AD2"/>
<path fill-rule="evenodd" clip-rule="evenodd" d="M151.908 138.25C148.169 172.453 119.04 199.07 83.6652 199.07C45.755 199.07 15.017 168.501 15.017 130.784H0C0 176.74 37.455 214 83.6652 214C129.875 214 167.33 176.74 167.33 130.784V123.319H119.402V138.25H151.908Z" fill="#5E6AD2"/>
<path fill-rule="evenodd" clip-rule="evenodd" d="M79.6398 92.6724C62.5876 92.6724 48.7584 106.423 48.7584 123.392C48.7584 140.362 62.5876 154.113 79.6398 154.113C96.692 154.113 110.521 140.362 110.521 123.392H125.538C125.538 148.601 104.992 169.043 79.6398 169.043C54.2876 169.043 33.7413 148.601 33.7413 123.392C33.7413 98.1837 54.2876 77.7422 79.6398 77.7422V92.6724Z" fill="#5E6AD2"/>
<path fill-rule="evenodd" clip-rule="evenodd" d="M79.652 128.588C82.5307 128.588 84.872 126.266 84.872 123.392C84.872 120.518 82.5307 118.195 79.652 118.195C76.7733 118.195 74.432 120.518 74.432 123.392C74.432 126.266 76.7733 128.588 79.652 128.588ZM79.652 138.542C88.064 138.542 94.8833 131.759 94.8833 123.392C94.8833 115.025 88.064 108.242 79.652 108.242C71.24 108.242 64.4207 115.025 64.4207 123.392C64.4207 131.759 71.24 138.542 79.652 138.542Z" fill="#5E6AD2"/>
</svg>
