<svg width="438" height="214" viewBox="0 0 438 214" fill="none" xmlns="http://www.w3.org/2000/svg">
<path d="M165.459 50.131H150.297C150.02 48.1798 149.454 46.4467 148.6 44.9317C147.747 43.3938 146.65 42.0854 145.312 41.0065C143.973 39.9276 142.427 39.1012 140.673 38.5274C138.942 37.9535 137.061 37.6666 135.031 37.6666C131.361 37.6666 128.165 38.5733 125.442 40.3867C122.719 42.1772 120.607 44.794 119.107 48.2372C117.607 51.6574 116.857 55.8122 116.857 60.7016C116.857 65.7287 117.607 69.9523 119.107 73.3726C120.63 76.7928 122.753 79.3752 125.476 81.1198C128.2 82.8643 131.35 83.7366 134.927 83.7366C136.935 83.7366 138.792 83.4726 140.5 82.9447C142.231 82.4167 143.766 81.6477 145.104 80.6377C146.443 79.6048 147.55 78.3537 148.427 76.8846C149.327 75.4155 149.95 73.7398 150.297 71.8576L165.459 71.9264C165.066 75.163 164.086 78.2849 162.516 81.2919C160.97 84.276 158.882 86.9502 156.251 89.3146C153.643 91.656 150.527 93.5153 146.904 94.8926C143.304 96.2469 139.231 96.9241 134.684 96.9241C128.361 96.9241 122.707 95.5009 117.722 92.6545C112.761 89.8081 108.837 85.6877 105.953 80.2934C103.091 74.899 101.66 68.3684 101.66 60.7016C101.66 53.0118 103.114 46.4697 106.022 41.0753C108.93 35.681 112.876 31.5721 117.861 28.7487C122.846 25.9023 128.453 24.4791 134.684 24.4791C138.792 24.4791 142.6 25.053 146.108 26.2007C149.639 27.3485 152.766 29.0241 155.489 31.2278C158.212 33.4085 160.428 36.0827 162.136 39.2504C163.866 42.4182 164.974 46.045 165.459 50.131Z" fill="#5E6AD2"/>
<path d="M214.666 45.7237C214.389 42.9462 213.201 40.7884 211.101 39.2504C209.001 37.7125 206.151 36.9435 202.55 36.9435C200.104 36.9435 198.039 37.2878 196.354 37.9765C194.669 38.6422 193.377 39.5718 192.477 40.7655C191.6 41.9591 191.162 43.3134 191.162 44.8284C191.115 46.0909 191.381 47.1928 191.958 48.1339C192.558 49.0751 193.377 49.8899 194.416 50.5786C195.454 51.2443 196.654 51.8296 198.016 52.3346C199.377 52.8167 200.831 53.2298 202.377 53.5742L208.747 55.0892C211.839 55.7778 214.678 56.696 217.263 57.8437C219.847 58.9915 222.086 60.4032 223.978 62.0789C225.871 63.7546 227.336 65.7287 228.375 68.0012C229.436 70.2737 229.978 72.879 230.001 75.8172C229.978 80.1327 228.871 83.8743 226.678 87.0421C224.509 90.1869 221.37 92.6315 217.263 94.3761C213.178 96.0977 208.251 96.9585 202.481 96.9585C196.758 96.9585 191.773 96.0862 187.527 94.3417C183.304 92.5971 180.003 90.0147 177.626 86.5944C175.273 83.1512 174.038 78.8932 173.922 73.8202H188.427C188.588 76.1845 189.269 78.1586 190.469 79.7425C191.692 81.3034 193.319 82.4856 195.35 83.289C197.404 84.0694 199.723 84.4597 202.308 84.4597C204.847 84.4597 207.051 84.0924 208.92 83.3578C210.812 82.6233 212.278 81.6018 213.316 80.2934C214.355 78.985 214.874 77.4815 214.874 75.7828C214.874 74.1989 214.401 72.8676 213.455 71.7887C212.532 70.7098 211.17 69.7916 209.37 69.0341C207.593 68.2766 205.412 67.588 202.827 66.9682L195.108 65.04C189.131 63.5939 184.411 61.3328 180.95 58.2569C177.488 55.181 175.769 51.0377 175.792 45.827C175.769 41.5574 176.911 37.8273 179.219 34.6366C181.55 31.4459 184.746 28.9553 188.808 27.1648C192.869 25.3743 197.485 24.4791 202.654 24.4791C207.916 24.4791 212.509 25.3743 216.432 27.1648C220.378 28.9553 223.447 31.4459 225.64 34.6366C227.832 37.8273 228.963 41.523 229.032 45.7237H214.666Z" fill="#5E6AD2"/>
<path d="M273.904 73.4414V43.0724H288.651V95.96H274.493V86.3534H273.939C272.739 89.4523 270.742 91.9429 267.95 93.8252C265.181 95.7075 261.8 96.6486 257.807 96.6486C254.253 96.6486 251.126 95.8452 248.426 94.2384C245.726 92.6315 243.615 90.3475 242.091 87.3864C240.591 84.4252 239.83 80.8787 239.807 76.7469V43.0724H254.553V74.1301C254.576 77.2519 255.419 79.7195 257.08 81.533C258.742 83.3464 260.969 84.2531 263.761 84.2531C265.538 84.2531 267.2 83.8514 268.746 83.048C270.292 82.2216 271.539 81.005 272.485 79.3982C273.454 77.7913 273.927 75.8058 273.904 73.4414Z" fill="#5E6AD2"/>
<path d="M300.446 95.96V43.0724H314.501V52.4035H315.124C316.232 49.3046 318.078 46.8599 320.663 45.0695C323.247 43.279 326.34 42.3838 329.94 42.3838C333.586 42.3838 336.69 43.2905 339.252 45.1039C341.813 46.8944 343.521 49.3275 344.375 52.4035H344.929C346.013 49.3735 347.975 46.9517 350.814 45.1383C353.675 43.3019 357.056 42.3838 360.956 42.3838C365.918 42.3838 369.945 43.9562 373.038 47.1009C376.153 50.2228 377.711 54.653 377.711 60.3917V95.96H362.999V63.284C362.999 60.3458 362.214 58.1421 360.645 56.673C359.076 55.2039 357.114 54.4694 354.76 54.4694C352.083 54.4694 349.994 55.3187 348.494 57.0174C346.994 58.6931 346.244 60.9082 346.244 63.6627V95.96H331.948V62.9741C331.948 60.3802 331.198 58.3143 329.698 56.7763C328.221 55.2384 326.27 54.4694 323.847 54.4694C322.209 54.4694 320.732 54.8826 319.416 55.7089C318.124 56.5124 317.097 57.6486 316.335 59.1177C315.574 60.5639 315.193 62.2625 315.193 64.2136V95.96H300.446Z" fill="#5E6AD2"/>
<path d="M413.591 96.9929C408.122 96.9929 403.414 95.8911 399.467 93.6874C395.544 91.4608 392.521 88.316 390.398 84.2531C388.275 80.1671 387.213 75.3352 387.213 69.7572C387.213 64.3169 388.275 59.5424 390.398 55.4335C392.521 51.3246 395.51 48.1224 399.364 45.827C403.241 43.5315 407.787 42.3838 413.003 42.3838C416.51 42.3838 419.776 42.9461 422.799 44.0709C425.845 45.1727 428.499 46.837 430.761 49.0636C433.046 51.2902 434.823 54.0906 436.092 57.465C437.361 60.8164 437.996 64.7416 437.996 69.2407V73.2693H393.098V64.1792H424.114C424.114 62.0674 423.653 60.1966 422.73 58.5668C421.807 56.937 420.526 55.663 418.887 54.7449C417.272 53.8037 415.391 53.3331 413.245 53.3331C411.006 53.3331 409.022 53.8496 407.291 54.8826C405.583 55.8926 404.245 57.2584 403.275 58.98C402.306 60.6786 401.81 62.5724 401.787 64.6613V73.3037C401.787 75.9205 402.271 78.1816 403.241 80.0868C404.233 81.992 405.629 83.4611 407.429 84.4941C409.229 85.5271 411.364 86.0435 413.833 86.0435C415.472 86.0435 416.972 85.814 418.333 85.3549C419.695 84.8958 420.861 84.2072 421.83 83.289C422.799 82.3708 423.538 81.246 424.045 79.9146L437.684 80.8099C436.992 84.0694 435.573 86.9158 433.426 89.349C431.303 91.7593 428.557 93.6415 425.188 94.9959C421.841 96.3272 417.976 96.9929 413.591 96.9929Z" fill="#5E6AD2"/>
<path fill-rule="evenodd" clip-rule="evenodd" d="M15.4244 75.7504C19.1629 41.5469 48.2926 14.9302 83.6671 14.9302V0C37.4569 0 0.00187132 37.26 0.00187132 83.2155V90.6806H79.7256V75.7504H15.4244Z" fill="#5E6AD2"/>
<path fill-rule="evenodd" clip-rule="evenodd" d="M151.908 138.25C148.169 172.453 119.04 199.07 83.6652 199.07C45.755 199.07 15.017 168.501 15.017 130.784H0C0 176.74 37.455 214 83.6652 214C129.875 214 167.33 176.74 167.33 130.784V123.319H119.402V138.25H151.908Z" fill="#5E6AD2"/>
<path fill-rule="evenodd" clip-rule="evenodd" d="M79.6398 92.6724C62.5876 92.6724 48.7584 106.423 48.7584 123.392C48.7584 140.362 62.5876 154.113 79.6398 154.113C96.692 154.113 110.521 140.362 110.521 123.392H125.538C125.538 148.601 104.992 169.043 79.6398 169.043C54.2876 169.043 33.7413 148.601 33.7413 123.392C33.7413 98.1837 54.2876 77.7422 79.6398 77.7422V92.6724Z" fill="#5E6AD2"/>
<path fill-rule="evenodd" clip-rule="evenodd" d="M79.652 128.588C82.5307 128.588 84.872 126.266 84.872 123.392C84.872 120.518 82.5307 118.195 79.652 118.195C76.7733 118.195 74.432 120.518 74.432 123.392C74.432 126.266 76.7733 128.588 79.652 128.588ZM79.652 138.542C88.064 138.542 94.8833 131.759 94.8833 123.392C94.8833 115.025 88.064 108.242 79.652 108.242C71.24 108.242 64.4207 115.025 64.4207 123.392C64.4207 131.759 71.24 138.542 79.652 138.542Z" fill="#5E6AD2"/>
<path d="M196.349 131.442C196.277 130.653 195.956 130.039 195.386 129.602C194.824 129.157 194.02 128.935 192.974 128.935C192.282 128.935 191.705 129.024 191.243 129.204C190.782 129.383 190.436 129.63 190.205 129.946C189.974 130.254 189.855 130.61 189.848 131.011C189.833 131.341 189.898 131.632 190.042 131.883C190.194 132.134 190.41 132.356 190.692 132.55C190.98 132.736 191.326 132.901 191.73 133.045C192.134 133.188 192.588 133.314 193.093 133.421L194.997 133.852C196.093 134.089 197.06 134.404 197.896 134.799C198.74 135.193 199.447 135.663 200.016 136.208C200.593 136.753 201.03 137.381 201.325 138.091C201.621 138.801 201.772 139.598 201.78 140.48C201.772 141.872 201.419 143.066 200.72 144.063C200.02 145.06 199.014 145.824 197.701 146.355C196.396 146.886 194.82 147.151 192.974 147.151C191.121 147.151 189.505 146.875 188.128 146.323C186.75 145.77 185.679 144.931 184.915 143.805C184.15 142.679 183.757 141.255 183.736 139.533H188.863C188.907 140.243 189.098 140.835 189.437 141.309C189.776 141.782 190.241 142.141 190.832 142.385C191.431 142.628 192.123 142.75 192.909 142.75C193.63 142.75 194.243 142.654 194.748 142.46C195.26 142.266 195.653 141.997 195.927 141.653C196.201 141.309 196.342 140.914 196.349 140.469C196.342 140.053 196.212 139.698 195.96 139.404C195.707 139.103 195.318 138.844 194.791 138.629C194.272 138.407 193.609 138.202 192.801 138.016L190.486 137.478C188.568 137.04 187.057 136.334 185.953 135.358C184.85 134.376 184.302 133.048 184.309 131.377C184.302 130.014 184.67 128.82 185.412 127.794C186.155 126.768 187.183 125.968 188.496 125.394C189.808 124.821 191.305 124.534 192.985 124.534C194.701 124.534 196.191 124.824 197.453 125.405C198.722 125.979 199.706 126.786 200.406 127.826C201.105 128.866 201.462 130.072 201.477 131.442H196.349Z" fill="#5E6AD2"/>
<path d="M230.529 147.183C228.791 147.183 227.291 146.843 226.029 146.161C224.774 145.473 223.807 144.493 223.13 143.224C222.459 141.947 222.123 140.43 222.123 138.672C222.123 136.965 222.462 135.473 223.14 134.196C223.818 132.912 224.774 131.915 226.007 131.205C227.24 130.488 228.693 130.129 230.367 130.129C231.549 130.129 232.631 130.312 233.612 130.678C234.593 131.043 235.44 131.585 236.154 132.302C236.868 133.02 237.423 133.906 237.82 134.96C238.217 136.007 238.415 137.209 238.415 138.565V139.877H223.973V136.822H233.493C233.486 136.262 233.352 135.764 233.093 135.326C232.833 134.888 232.476 134.548 232.022 134.304C231.575 134.053 231.059 133.927 230.475 133.927C229.883 133.927 229.353 134.06 228.885 134.325C228.416 134.584 228.044 134.939 227.77 135.391C227.496 135.835 227.352 136.341 227.338 136.908V140.017C227.338 140.692 227.471 141.283 227.738 141.793C228.005 142.295 228.383 142.686 228.874 142.966C229.364 143.245 229.948 143.385 230.626 143.385C231.095 143.385 231.52 143.321 231.903 143.192C232.285 143.062 232.613 142.872 232.887 142.621C233.161 142.37 233.367 142.062 233.504 141.696L238.361 141.836C238.159 142.919 237.715 143.862 237.03 144.666C236.352 145.462 235.462 146.082 234.358 146.527C233.255 146.965 231.978 147.183 230.529 147.183Z" fill="#5E6AD2"/>
<path d="M267.151 147.183C265.398 147.183 263.894 146.825 262.64 146.107C261.392 145.39 260.433 144.393 259.762 143.116C259.091 141.832 258.756 140.347 258.756 138.662C258.756 136.969 259.091 135.484 259.762 134.207C260.44 132.923 261.403 131.922 262.65 131.205C263.905 130.488 265.402 130.129 267.14 130.129C268.676 130.129 270.014 130.405 271.153 130.957C272.3 131.51 273.194 132.292 273.836 133.303C274.485 134.307 274.827 135.487 274.864 136.843H269.92C269.819 135.997 269.53 135.333 269.054 134.853C268.586 134.372 267.973 134.132 267.215 134.132C266.602 134.132 266.065 134.304 265.604 134.648C265.142 134.985 264.781 135.487 264.522 136.154C264.269 136.814 264.143 137.632 264.143 138.608C264.143 139.583 264.269 140.408 264.522 141.083C264.781 141.75 265.142 142.255 265.604 142.6C266.065 142.937 266.602 143.105 267.215 143.105C267.706 143.105 268.139 143.001 268.514 142.793C268.896 142.585 269.21 142.281 269.455 141.879C269.7 141.47 269.855 140.975 269.92 140.394H274.864C274.813 141.757 274.471 142.948 273.836 143.966C273.208 144.985 272.325 145.778 271.186 146.344C270.053 146.904 268.708 147.183 267.151 147.183Z" fill="#5E6AD2"/>
<path d="M306.569 139.738V130.344H311.848V146.871H306.807V143.794H306.634C306.266 144.806 305.638 145.609 304.751 146.204C303.871 146.793 302.808 147.087 301.56 147.087C300.428 147.087 299.433 146.828 298.574 146.312C297.716 145.795 297.049 145.075 296.573 144.149C296.097 143.217 295.856 142.126 295.848 140.878V130.344H301.138V139.845C301.145 140.742 301.383 141.448 301.852 141.965C302.321 142.481 302.959 142.74 303.767 142.74C304.293 142.74 304.766 142.625 305.184 142.395C305.609 142.159 305.945 141.818 306.19 141.373C306.442 140.921 306.569 140.376 306.569 139.738Z" fill="#5E6AD2"/>
<path d="M333.492 146.871V130.344H338.631V133.357H338.804C339.107 132.267 339.601 131.456 340.286 130.925C340.971 130.387 341.768 130.118 342.677 130.118C342.922 130.118 343.174 130.136 343.434 130.172C343.693 130.201 343.935 130.247 344.159 130.312V134.885C343.906 134.799 343.574 134.731 343.163 134.68C342.759 134.63 342.399 134.605 342.082 134.605C341.454 134.605 340.888 134.745 340.383 135.025C339.886 135.297 339.493 135.681 339.204 136.176C338.923 136.664 338.782 137.238 338.782 137.898V146.871H333.492Z" fill="#5E6AD2"/>
<path d="M364.592 146.871V130.344H369.881V146.871H364.592ZM367.242 128.418C366.499 128.418 365.861 128.174 365.327 127.686C364.794 127.191 364.527 126.596 364.527 125.9C364.527 125.212 364.794 124.623 365.327 124.136C365.861 123.641 366.499 123.393 367.242 123.393C367.992 123.393 368.63 123.641 369.157 124.136C369.69 124.623 369.957 125.212 369.957 125.9C369.957 126.596 369.69 127.191 369.157 127.686C368.63 128.174 367.992 128.418 367.242 128.418Z" fill="#5E6AD2"/>
<path d="M400.905 130.344V134.218H390.423V130.344H400.905ZM392.619 126.384H397.909V141.674C397.909 141.997 397.959 142.259 398.06 142.46C398.168 142.654 398.323 142.793 398.525 142.879C398.727 142.958 398.969 142.998 399.25 142.998C399.452 142.998 399.665 142.98 399.888 142.944C400.119 142.901 400.292 142.865 400.407 142.836L401.208 146.635C400.956 146.706 400.599 146.796 400.137 146.904C399.683 147.011 399.138 147.079 398.504 147.108C397.263 147.166 396.199 147.022 395.312 146.678C394.432 146.326 393.758 145.781 393.289 145.042C392.828 144.303 392.604 143.374 392.619 142.255V126.384Z" fill="#5E6AD2"/>
<path d="M425.116 153.069C424.482 153.069 423.883 153.019 423.32 152.919C422.758 152.825 422.275 152.7 421.871 152.542L423.039 148.722C423.558 148.894 424.027 148.995 424.445 149.023C424.871 149.052 425.235 148.984 425.538 148.819C425.848 148.661 426.086 148.378 426.252 147.969L426.458 147.474L420.551 130.344H426.09L429.151 142.137H429.324L432.429 130.344H438L431.737 148.453C431.434 149.357 431.005 150.153 430.449 150.842C429.901 151.538 429.191 152.083 428.318 152.477C427.453 152.872 426.385 153.069 425.116 153.069Z" fill="#5E6AD2"/>
<path d="M184.374 183.232V161.195H199.822V165.521H189.729V170.04H199.032V174.376H189.729V178.906H199.822V183.232H184.374Z" fill="#5E6AD2"/>
<path d="M225.953 166.704L228.69 172.149L231.524 166.704H236.857L232.216 174.968L237.03 183.232H231.74L228.69 177.744L225.715 183.232H220.349L225.174 174.968L220.587 166.704H225.953Z" fill="#5E6AD2"/>
<path d="M257.55 189.429V166.704H262.786V169.534H262.948C263.164 169.032 263.471 168.548 263.867 168.082C264.271 167.615 264.783 167.235 265.404 166.941C266.031 166.64 266.781 166.489 267.654 166.489C268.807 166.489 269.886 166.79 270.888 167.393C271.898 167.995 272.713 168.924 273.333 170.18C273.953 171.435 274.263 173.035 274.263 174.979C274.263 176.851 273.964 178.418 273.365 179.681C272.774 180.943 271.973 181.89 270.964 182.521C269.961 183.153 268.847 183.468 267.621 183.468C266.785 183.468 266.06 183.332 265.447 183.059C264.834 182.787 264.318 182.428 263.9 181.983C263.489 181.539 263.171 181.062 262.948 180.552H262.84V189.429H257.55ZM262.732 174.968C262.732 175.857 262.851 176.632 263.089 177.292C263.334 177.952 263.683 178.465 264.138 178.831C264.599 179.189 265.151 179.369 265.793 179.369C266.442 179.369 266.994 179.189 267.448 178.831C267.902 178.465 268.245 177.952 268.476 177.292C268.714 176.632 268.833 175.857 268.833 174.968C268.833 174.078 268.714 173.307 268.476 172.655C268.245 172.002 267.902 171.496 267.448 171.137C267.001 170.779 266.449 170.599 265.793 170.599C265.144 170.599 264.592 170.775 264.138 171.127C263.683 171.478 263.334 171.98 263.089 172.633C262.851 173.286 262.732 174.064 262.732 174.968Z" fill="#5E6AD2"/>
<path d="M303.08 183.544C301.342 183.544 299.842 183.203 298.58 182.521C297.325 181.833 296.359 180.854 295.681 179.584C295.01 178.307 294.675 176.79 294.675 175.033C294.675 173.325 295.014 171.833 295.691 170.556C296.369 169.272 297.325 168.275 298.558 167.565C299.791 166.848 301.245 166.489 302.918 166.489C304.1 166.489 305.182 166.672 306.163 167.038C307.144 167.404 307.991 167.945 308.705 168.663C309.419 169.38 309.974 170.266 310.371 171.32C310.768 172.368 310.966 173.569 310.966 174.925V176.238H296.524V173.182H306.044C306.037 172.622 305.903 172.124 305.644 171.686C305.384 171.249 305.027 170.908 304.573 170.664C304.126 170.413 303.61 170.287 303.026 170.287C302.434 170.287 301.904 170.42 301.436 170.685C300.967 170.944 300.595 171.299 300.321 171.751C300.047 172.195 299.903 172.701 299.889 173.268V176.378C299.889 177.052 300.022 177.644 300.289 178.153C300.556 178.655 300.934 179.046 301.425 179.326C301.915 179.606 302.499 179.745 303.177 179.745C303.646 179.745 304.072 179.681 304.454 179.552C304.836 179.423 305.164 179.233 305.438 178.981C305.712 178.73 305.918 178.422 306.055 178.056L310.912 178.196C310.71 179.279 310.267 180.222 309.581 181.026C308.903 181.822 308.013 182.443 306.909 182.887C305.806 183.325 304.53 183.544 303.08 183.544Z" fill="#5E6AD2"/>
<path d="M331.945 183.232V166.704H337.084V169.717H337.257C337.56 168.627 338.054 167.816 338.739 167.285C339.424 166.747 340.221 166.478 341.13 166.478C341.375 166.478 341.627 166.496 341.887 166.532C342.147 166.561 342.388 166.607 342.612 166.672V171.245C342.359 171.159 342.027 171.091 341.616 171.041C341.213 170.99 340.852 170.965 340.535 170.965C339.907 170.965 339.341 171.105 338.836 171.385C338.339 171.657 337.946 172.041 337.657 172.536C337.376 173.024 337.235 173.598 337.235 174.258V183.232H331.945Z" fill="#5E6AD2"/>
<path d="M373.197 166.704V170.578H362.715V166.704H373.197ZM364.911 162.745H370.201V178.035C370.201 178.357 370.251 178.619 370.352 178.82C370.46 179.014 370.615 179.154 370.817 179.24C371.019 179.319 371.261 179.358 371.542 179.358C371.744 179.358 371.957 179.34 372.18 179.304C372.411 179.261 372.584 179.225 372.699 179.197L373.5 182.995C373.248 183.067 372.891 183.156 372.429 183.264C371.975 183.372 371.43 183.44 370.796 183.468C369.555 183.526 368.491 183.382 367.604 183.038C366.725 182.686 366.05 182.141 365.581 181.402C365.12 180.664 364.896 179.735 364.911 178.616V162.745Z" fill="#5E6AD2"/>
</svg>
